<svg width="128" height="128" viewBox="0 0 128 128" fill="none" xmlns="http://www.w3.org/2000/svg">
<g clip-path="url(#clip0_1_2)">
<path fill-rule="evenodd" clip-rule="evenodd" d="M64 117C93.2711 117 117 93.2711 117 64C117 34.7289 93.2711 11 64 11C34.7289 11 11 34.7289 11 64C11 93.2711 34.7289 117 64 117ZM64 128C99.3462 128 128 99.3462 128 64C128 28.6538 99.3462 0 64 0C28.6538 0 0 28.6538 0 64C0 99.3462 28.6538 128 64 128Z" fill="#0D82D8"/>
<path fill-rule="evenodd" clip-rule="evenodd" d="M30.5557 57.578L31.5319 46.8211H45.0363L47.8022 30.1239L60.005 29L57.0763 46.8211H69.6045L72.3705 30.1239L84.4105 29L81.4818 46.8211H87.6149C99.5 46.8211 103.865 56.9124 102.832 63.5362C101.799 70.16 97.1827 80.3761 82.0829 80.3761H76.1126L73.3467 97.8762L61.1439 99L64.0726 80.3761H51.7071L48.9412 97.8762L36.7384 99L39.6671 80.3761H26L26.9762 69.4587H41.4568L43.4093 57.578H30.5557ZM79.6921 57.578H86.6386C88.1436 57.578 92.1356 58.519 91.5 63.5362C90.8644 68.5534 85.3189 69.4587 83.0592 69.4587H77.9024L79.6921 57.578ZM53.4969 69.4587L55.2866 57.578H67.8148L65.8623 69.4587H53.4969Z" fill="#0D82D8"/>
</g>
<defs>
<clipPath id="clip0_1_2">
<rect width="128" height="128" fill="white"/>
</clipPath>
</defs>
</svg>
